<mxfile host="65bd71144e">
    <diagram id="e4goo-ONDN0V6RHl2WTU" name="Page-1">
        <mxGraphModel dx="629" dy="316" grid="1" gridSize="10" guides="1" tooltips="1" connect="1" arrows="1" fold="1" page="1" pageScale="1" pageWidth="850" pageHeight="1100" math="0" shadow="0">
            <root>
                <mxCell id="0"/>
                <mxCell id="1" parent="0"/>
                <mxCell id="2" value="&lt;h1&gt;Arbiter&lt;/h1&gt;" style="rounded=0;whiteSpace=wrap;html=1;" parent="1" vertex="1">
                    <mxGeometry x="230" y="80" width="90" height="120" as="geometry"/>
                </mxCell>
                <mxCell id="4" value="clk" style="endArrow=classic;html=1;fontSize=16;entryX=-0.001;entryY=0.122;entryDx=0;entryDy=0;entryPerimeter=0;" parent="1" edge="1">
                    <mxGeometry width="50" height="50" relative="1" as="geometry">
                        <mxPoint x="90.44" y="100.24000000000001" as="sourcePoint"/>
                        <mxPoint x="229.99999999999994" y="100" as="targetPoint"/>
                    </mxGeometry>
                </mxCell>
                <mxCell id="5" value="valid_candidate" style="endArrow=classic;html=1;fontSize=16;entryX=-0.001;entryY=0.122;entryDx=0;entryDy=0;entryPerimeter=0;" edge="1" parent="1">
                    <mxGeometry width="50" height="50" relative="1" as="geometry">
                        <mxPoint x="90.44000000000005" y="180.24" as="sourcePoint"/>
                        <mxPoint x="230" y="180" as="targetPoint"/>
                        <Array as="points">
                            <mxPoint x="160" y="180"/>
                        </Array>
                    </mxGeometry>
                </mxCell>
                <mxCell id="6" value="rst" style="endArrow=classic;html=1;fontSize=16;entryX=-0.001;entryY=0.122;entryDx=0;entryDy=0;entryPerimeter=0;" edge="1" parent="1">
                    <mxGeometry width="50" height="50" relative="1" as="geometry">
                        <mxPoint x="90.44000000000005" y="139.74" as="sourcePoint"/>
                        <mxPoint x="230" y="139.5" as="targetPoint"/>
                    </mxGeometry>
                </mxCell>
                <mxCell id="7" value="winner_dec_id" style="endArrow=classic;html=1;fontSize=16;entryX=-0.001;entryY=0.122;entryDx=0;entryDy=0;entryPerimeter=0;" edge="1" parent="1">
                    <mxGeometry x="0.0032" width="50" height="50" relative="1" as="geometry">
                        <mxPoint x="320" y="139.74" as="sourcePoint"/>
                        <mxPoint x="459.55999999999995" y="139.5" as="targetPoint"/>
                        <Array as="points">
                            <mxPoint x="390" y="140"/>
                        </Array>
                        <mxPoint as="offset"/>
                    </mxGeometry>
                </mxCell>
            </root>
        </mxGraphModel>
    </diagram>
</mxfile>